<?xml version="1.0" standalone="no"?>
<!DOCTYPE svg PUBLIC "-//W3C//DTD SVG 20010904//EN"
 "http://www.w3.org/TR/2001/REC-SVG-20010904/DTD/svg10.dtd">
<svg version="1.0" xmlns="http://www.w3.org/2000/svg"
 width="367.000000pt" height="367.000000pt" viewBox="0 0 367.000000 367.000000"
 preserveAspectRatio="xMidYMid meet">
<metadata>
Created by potrace 1.14, written by Peter Selinger 2001-2017
</metadata>
<g transform="translate(0.000000,367.000000) scale(0.100000,-0.100000)"
fill="#000000" stroke="none">
<path d="M3575 3573 c-33 -25 -62 -49 -65 -52 -3 -3 -39 -33 -80 -66 -41 -33
-156 -127 -255 -209 -99 -81 -223 -183 -275 -225 -52 -42 -97 -79 -100 -82 -3
-4 -44 -38 -92 -77 -103 -84 -136 -112 -157 -132 -9 -8 -36 -31 -61 -50 -42
-33 -387 -318 -440 -363 -14 -12 -50 -42 -80 -67 -30 -25 -68 -57 -85 -72 -16
-16 -33 -28 -36 -28 -3 0 -106 102 -229 227 l-224 227 -279 2 -279 1 44 -46
c25 -25 85 -88 134 -140 49 -52 109 -116 134 -142 25 -26 97 -103 161 -171 64
-68 142 -149 172 -182 l57 -59 -29 -36 c-16 -20 -48 -56 -71 -81 -23 -25 -63
-69 -88 -99 -26 -30 -52 -59 -57 -65 -6 -6 -47 -51 -90 -101 -44 -49 -84 -95
-90 -101 -19 -21 -410 -462 -584 -659 -15 -16 -67 -75 -116 -131 -104 -116
-213 -238 -236 -266 -9 -10 -45 -50 -79 -88 -96 -107 -100 -112 -100 -126 0
-24 12 -44 27 -44 11 0 236 169 498 375 11 9 33 26 49 38 16 12 113 87 215
166 102 79 238 184 301 233 63 48 121 93 129 100 8 6 66 52 130 101 64 50 118
93 121 96 3 3 34 31 70 61 36 30 67 57 70 60 3 3 48 41 100 84 52 44 100 84
105 90 37 39 53 47 66 33 8 -8 73 -77 145 -153 72 -77 160 -169 195 -206 l64
-67 305 -3 c185 -1 304 2 302 8 -2 5 -167 174 -368 376 -200 202 -364 370
-364 373 0 9 116 153 185 229 6 6 37 43 70 81 33 39 62 72 65 75 3 3 61 70
129 150 69 80 129 150 135 155 6 6 21 22 32 37 12 15 46 55 76 90 31 35 120
137 198 228 78 91 164 190 190 220 26 30 98 114 160 185 62 72 134 155 160
185 112 130 110 126 98 138 -17 17 -17 17 -83 -35z"/>
<path d="M1869 3276 c-2 -2 -62 -7 -134 -10 -71 -3 -141 -8 -155 -10 -14 -3
-42 -7 -62 -10 -31 -5 -76 -14 -143 -30 -363 -87 -724 -319 -928 -598 -89
-123 -120 -178 -172 -303 -185 -445 -104 -941 216 -1325 57 -68 98 -110 108
-110 4 0 28 21 54 48 l47 48 -55 59 c-76 83 -169 220 -208 307 -51 112 -55
122 -76 206 -82 321 -24 644 166 931 83 125 336 371 382 371 5 0 11 3 13 8 13
29 241 139 383 185 347 111 735 108 1067 -9 40 -14 82 -28 93 -31 11 -4 61
-27 110 -52 l91 -47 51 53 c37 37 48 55 40 61 -55 43 -314 156 -420 183 -174
43 -230 53 -377 65 -41 3 -78 8 -81 10 -3 2 -8 2 -10 0z"/>
<path d="M3012 2729 c-29 -28 -52 -52 -52 -54 0 -2 12 -16 28 -32 156 -160
279 -409 310 -628 4 -27 6 -115 6 -195 -2 -119 -6 -162 -27 -240 -80 -306
-275 -570 -558 -758 -378 -250 -877 -331 -1333 -216 -105 27 -246 79 -332 124
l-53 27 -52 -53 c-29 -30 -51 -56 -48 -59 18 -18 227 -112 314 -141 99 -33
256 -70 337 -80 21 -2 57 -6 81 -9 85 -11 333 -5 431 10 136 21 336 72 411
105 204 91 287 137 407 227 320 242 529 590 565 943 28 264 -16 497 -136 735
-32 61 -63 118 -69 126 -6 8 -38 48 -71 89 -32 41 -70 87 -83 102 l-24 27 -52
-50z"/>
<path d="M2740 611 c0 -5 7 -12 15 -15 10 -3 15 -16 13 -32 -2 -15 3 -29 10
-31 8 -3 12 7 12 31 0 25 4 36 15 36 8 0 15 5 15 10 0 6 -18 10 -40 10 -22 0
-40 -4 -40 -9z"/>
<path d="M2830 576 c0 -45 19 -67 21 -23 l0 22 9 -22 c10 -26 30 -31 30 -9 0
8 4 17 9 20 5 3 8 -2 7 -11 0 -9 4 -17 9 -20 6 -2 10 14 10 39 0 33 -4 44 -17
46 -12 2 -18 -3 -18 -17 0 -28 -18 -36 -22 -9 -2 13 -11 24 -20 26 -15 3 -18
-4 -18 -42z"/>
</g>
</svg>
